HIERARCHY
ROOT hip
{
	OFFSET 0.000000 0.000000 0.000000 
	CHANNELS 6 Xposition Yposition Zposition Xrotation Zrotation Yrotation
	JOINT abdomen
	{
		OFFSET 0.000000 3.402643 0.000000 
		CHANNELS 3 Xrotation Zrotation Yrotation
		JOINT chest
		{
			OFFSET 0.000000 8.438565 -0.680529 
			CHANNELS 3 Xrotation Zrotation Yrotation
			JOINT neck
			{
				OFFSET 0.000000 10.207942 -0.272212 
				CHANNELS 3 Xrotation Zrotation Yrotation
				JOINT head
				{
					OFFSET 0.000000 3.130431 0.000000 
					CHANNELS 3 Xrotation Zrotation Yrotation
					End Site
					{
						OFFSET 0.000000 3.130435 0.000000 
					}
				}
			}
			JOINT lCollar
			{
				OFFSET 3.470700 6.669187 -0.816635 
				CHANNELS 3 Yrotation Zrotation Xrotation
				JOINT lShldr
				{
					OFFSET 3.198488 0.000000 0.000000 
					CHANNELS 3 Zrotation Yrotation Xrotation
					JOINT lForeArm
					{
						OFFSET 10.139888 0.000000 0.000000 
						CHANNELS 3 Yrotation Zrotation Xrotation
						JOINT lHand
						{
							OFFSET 8.370511 0.000000 0.000000 
							CHANNELS 3 Zrotation Yrotation Xrotation
							End Site
							{
								OFFSET 4.083176 0.000000 0.000000 
							}
						}
					}
				}
			}
			JOINT rCollar
			{
				OFFSET -3.470700 6.669187 -0.816635 
				CHANNELS 3 Yrotation Zrotation Xrotation
				JOINT rShldr
				{
					OFFSET -3.198488 0.000000 0.000000 
					CHANNELS 3 Zrotation Yrotation Xrotation
					JOINT rForeArm
					{
						OFFSET -10.139888 0.000000 0.000000 
						CHANNELS 3 Yrotation Zrotation Xrotation
						JOINT rHand
						{
							OFFSET -8.370511 0.000000 0.000000 
							CHANNELS 3 Zrotation Yrotation Xrotation
							End Site
							{
								OFFSET -4.083176 0.000000 0.000000 
							}
						}
					}
				}
			}
		}
	}
	JOINT lThigh
	{
		OFFSET 5.308129 -1.633274 1.361059 
		CHANNELS 3 Xrotation Zrotation Yrotation
		JOINT lShin
		{
			OFFSET -2.041588 -20.007561 0.000000 
			CHANNELS 3 Xrotation Zrotation Yrotation
			JOINT lFoot
			{
				OFFSET 0.000000 -19.190928 -1.224953 
				CHANNELS 3 Xrotation Yrotation Zrotation
				End Site
				{
					OFFSET 0.000000 -2.449906 4.627600 
				}
			}
		}
	}
	JOINT rThigh
	{
		OFFSET -5.308129 -1.633274 1.361059 
		CHANNELS 3 Xrotation Zrotation Yrotation
		JOINT rShin
		{
			OFFSET 2.041588 -20.007561 0.000000 
			CHANNELS 3 Xrotation Zrotation Yrotation
			JOINT rFoot
			{
				OFFSET 0.000000 -19.190928 -1.224953 
				CHANNELS 3 Xrotation Yrotation Zrotation
				End Site
				{
					OFFSET 0.000000 -2.449906 4.627600 
				}
			}
		}
	}
}
MOTION
Frames: 6
Frame Time: 0.033333
4.175061 51.649628 -1.293175 -14.198473 -12.984263 -0.664435 0.000000 0.000000 0.000000 16.894382 5.075102 6.988237 33.126450 4.706974 0.183589 -25.808624 -1.716292 -0.875653 -8.083735 -6.543681 24.014160 -71.386871 10.409516 -13.179704 -60.845093 -0.220694 89.097160 -30.720896 -15.768035 -46.922287 -8.349476 10.739887 25.000000 52.595779 -3.294043 61.989117 37.012489 -51.902706 37.214138 44.142754 11.144119 -80.679405 21.027920 7.256349 18.825737 31.357866 8.606052 0.755388 -19.090559 -25.677708 5.319218 9.565228 -1.600645 0.487319 10.534476 0.584143 0.152122 30.228811 -0.109287 3.143987 
4.302940 51.605392 -1.169545 -15.205900 -13.040013 -0.367718 0.000000 0.000000 0.000000 17.698521 5.406913 7.025685 33.438103 4.824910 0.188120 -25.984947 -1.736797 -0.892836 -8.335059 -7.113324 23.908344 -71.090157 10.852883 -13.414699 -61.050777 -0.090403 89.527458 -30.702625 -15.689535 -46.953140 -8.525444 11.157354 25.000000 52.064301 -3.379418 61.674381 35.749756 -51.755787 36.009792 44.103168 11.192943 -80.672913 21.642916 7.070958 18.698133 32.280319 8.965631 0.782319 -19.604376 -25.389677 5.750949 11.886907 -3.084008 0.019545 8.937076 0.546304 -0.017008 31.740999 -2.113585 3.223105 
4.433223 51.542404 -1.048908 -16.283152 -13.076971 -0.057539 0.000000 0.000000 0.000000 18.620293 5.684342 7.038610 33.557213 5.001338 0.198209 -26.269243 -1.778931 -1.007038 -8.578828 -7.678232 23.799364 -70.745682 11.308083 -13.689953 -61.235153 0.065876 89.833305 -30.792442 -15.681513 -46.894592 -8.781447 11.202749 25.000000 51.884949 -3.271208 61.561047 34.189301 -51.200310 33.761818 43.628948 10.401676 -80.811920 22.088276 6.924160 18.608479 33.651562 9.391951 0.768229 -20.343691 -25.083908 6.215255 14.448562 -5.233066 -0.661004 8.234159 0.867999 -0.010384 33.200394 -4.437894 3.497021 
4.578330 51.490997 -0.954934 -16.969339 -12.975577 0.265765 0.000000 0.000000 0.000000 19.137428 5.870156 7.052462 33.709587 5.227753 0.220811 -26.515223 -1.853514 -1.196925 -9.055113 -8.140237 23.675062 -70.588181 11.627771 -13.839090 -61.153046 0.348164 89.942223 -30.701187 -15.757881 -46.904331 -9.155542 11.515263 25.000000 51.414509 -3.177541 61.272160 32.749172 -50.553734 31.943703 42.986870 10.244562 -80.828087 22.321033 6.513754 18.425686 34.505527 9.946805 0.846519 -20.761431 -24.871304 6.611303 16.166311 -7.156354 -1.264578 8.553227 1.454612 0.164175 34.292763 -5.458579 4.220153 
4.759823 51.428627 -0.876510 -17.416840 -12.486560 0.803011 0.000000 0.000000 0.000000 19.376471 5.686409 6.996608 33.815960 5.760079 0.259253 -26.676113 -2.041289 -1.544889 -9.997198 -8.513081 23.516909 -70.507309 12.110116 -13.961156 -61.268723 0.562720 90.036980 -30.888769 -15.839653 -46.779308 -9.847226 11.735671 25.000000 50.926262 -3.123683 60.974335 31.723558 -49.708290 30.214144 41.812275 9.928918 -80.800774 22.225996 5.615715 18.089874 35.204941 10.846625 1.017324 -21.128849 -24.883173 6.862710 17.784084 -9.556403 -2.038470 9.282411 2.332269 0.402971 34.800320 -6.042615 4.679828 
4.921790 51.371449 -0.820989 -17.676567 -12.039267 1.214975 0.000000 0.000000 0.000000 19.455885 5.425525 6.933199 33.941944 6.362633 0.298005 -26.875673 -2.195410 -1.766108 -10.957144 -9.046064 23.298553 -70.232773 12.776918 -14.241314 -61.627335 0.670959 90.315666 -31.226604 -15.885133 -46.596313 -10.334608 12.278827 25.000000 50.124767 -3.270258 60.523529 31.417736 -49.190060 29.571980 41.230118 9.819186 -80.821693 21.865885 4.795960 17.813032 36.060070 11.636004 1.130901 -21.483753 -24.833399 7.125795 19.821255 -12.156431 -2.882163 10.318377 3.120886 0.647177 35.197609 -5.664709 6.163475 
